<svg width="40" height="40" viewBox="0 0 40 40" fill="none" xmlns="http://www.w3.org/2000/svg">
<path d="M20 40C8.9543 40 0 31.0457 0 20H11C11 24.9706 15.0294 29 20 29C24.9706 29 29 24.9706 29 20C29 15.0294 24.9706 11 20 11V0C31.0457 0 40 8.9543 40 20C40 31.0457 31.0457 40 20 40Z" fill="#6E62E5"/>
<path d="M20 0H8.78286C8.78286 1.15338 8.55568 2.29547 8.1143 3.36105C7.67292 4.42664 7.02598 5.39486 6.21042 6.21042C5.39486 7.02598 4.42664 7.67292 3.36105 8.1143C2.29547 8.55568 1.15338 8.78286 0 8.78286V20C2.62644 20 5.22716 19.4827 7.65367 18.4776C10.0802 17.4725 12.285 15.9993 14.1421 14.1421C15.9993 12.285 17.4725 10.0802 18.4776 7.65367C19.4827 5.22716 20 2.62644 20 0Z" fill="#6E62E5"/>
</svg>
