<svg width="32" height="32" viewBox="0 0 32 32"  fill="currentColor" xmlns="http://www.w3.org/2000/svg">
<path d="M4.5 5.75H9.75V3.75C9.75 3.6125 9.8625 3.5 10 3.5H11.75C11.8875 3.5 12 3.6125 12 3.75V5.75H20V3.75C20 3.6125 20.1125 3.5 20.25 3.5H22C22.1375 3.5 22.25 3.6125 22.25 3.75V5.75H27.5C28.0531 5.75 28.5 6.19687 28.5 6.75V27.5C28.5 28.0531 28.0531 28.5 27.5 28.5H4.5C3.94687 28.5 3.5 28.0531 3.5 27.5V6.75C3.5 6.19687 3.94687 5.75 4.5 5.75ZM5.75 26.25H26.25V14.375H5.75V26.25ZM26.25 12.25V8H22.25V9.5C22.25 9.6375 22.1375 9.75 22 9.75H20.25C20.1125 9.75 20 9.6375 20 9.5V8H12V9.5C12 9.6375 11.8875 9.75 11.75 9.75H10C9.8625 9.75 9.75 9.6375 9.75 9.5V8H5.75V12.25H26.25Z" />
</svg>
