<svg width="32" height="32" viewBox="0 0 32 32" stroke="currentColor" fill="none" xmlns="http://www.w3.org/2000/svg">
<path d="M2.66602 26.6693H5.33268M5.33268 26.6693H15.9993M5.33268 26.6693V9.6026C5.33268 8.10927 5.33268 7.3626 5.62335 6.79194C5.87935 6.28927 6.28602 5.8826 6.78868 5.6266C7.35935 5.33594 8.10601 5.33594 9.59935 5.33594H11.7327C13.226 5.33594 13.9727 5.33594 14.5433 5.6266C15.0451 5.88226 15.453 6.29019 15.7087 6.79194C15.9993 7.36127 15.9993 8.10794 15.9993 9.5986V13.6653M15.9993 26.6693H26.666M15.9993 26.6693V13.6653M15.9993 13.6653L16.4807 13.2306C17.4887 12.3253 17.9927 11.8733 18.5633 11.7013C19.0651 11.5501 19.6003 11.5501 20.102 11.7013C20.6727 11.8733 21.1767 12.3253 22.1847 13.2306L25.2513 15.9866C25.7727 16.4546 26.0327 16.6893 26.2193 16.9693C26.385 17.2181 26.5076 17.4931 26.582 17.7826C26.666 18.1093 26.666 18.4599 26.666 19.1599V26.6693M26.666 26.6693H29.3327" stroke-width="2" stroke-linecap="round" stroke-linejoin="round"/>
</svg>
