<svg width="32" height="32" viewBox="0 0 32 32" stroke="currentColor" fill="none" xmlns="http://www.w3.org/2000/svg">
<path d="M20.0007 22.6667V24C20.0007 25.0609 19.5792 26.0783 18.8291 26.8284C18.0789 27.5786 17.0615 28 16.0007 28C14.9398 28 13.9224 27.5786 13.1722 26.8284C12.4221 26.0783 12.0007 25.0609 12.0007 24V22.6667M20.0007 22.6667H12.0007M20.0007 22.6667H24.7873C25.298 22.6667 25.554 22.6667 25.7607 22.5973C25.955 22.5315 26.1316 22.4217 26.2766 22.2765C26.4216 22.1312 26.5311 21.9545 26.5967 21.76C26.6673 21.552 26.6673 21.296 26.6673 20.7813C26.6673 20.556 26.6673 20.444 26.6487 20.336C26.6158 20.1341 26.5369 19.9425 26.418 19.776C26.354 19.6867 26.274 19.6067 26.1153 19.448L25.5953 18.928C25.5124 18.845 25.4466 18.7464 25.4018 18.638C25.3569 18.5296 25.3339 18.4133 25.334 18.296V13.3333C25.334 12.1077 25.0926 10.894 24.6235 9.76162C24.1545 8.62925 23.467 7.60035 22.6003 6.73367C21.7336 5.86699 20.7047 5.1795 19.5724 4.71046C18.44 4.24141 17.2263 4 16.0007 4C14.775 4 13.5613 4.24141 12.4289 4.71046C11.2966 5.1795 10.2677 5.86699 9.40099 6.73367C8.53431 7.60035 7.84682 8.62925 7.37778 9.76162C6.90873 10.894 6.66732 12.1077 6.66732 13.3333V18.296C6.6674 18.4133 6.64436 18.5296 6.59952 18.638C6.55468 18.7464 6.48892 18.845 6.40598 18.928L5.88598 19.448C5.72598 19.608 5.64732 19.6867 5.58465 19.7747C5.46469 19.9413 5.38483 20.1334 5.35132 20.336C5.33398 20.4427 5.33398 20.556 5.33398 20.7813C5.33398 21.296 5.33398 21.552 5.40332 21.76C5.46909 21.9548 5.57902 22.1317 5.72451 22.277C5.86999 22.4222 6.0471 22.5319 6.24198 22.5973C6.44865 22.6667 6.70332 22.6667 7.21398 22.6667H12.0007"  stroke-linecap="round" stroke-linejoin="round"/>
</svg>
