<svg width="32" height="32" viewBox="0 0 32 32" stroke="currentColor" fill="none" xmlns="http://www.w3.org/2000/svg">
<path d="M12.1947 12.0987C12.4216 11.3963 12.8386 10.7705 13.3993 10.2906C13.9601 9.81069 14.6428 9.49542 15.3718 9.37972C16.1008 9.26403 16.8476 9.35242 17.5294 9.63512C18.2112 9.91781 18.8014 10.3838 19.2347 10.9813C19.6684 11.578 19.9288 12.2831 19.9868 13.0185C20.0449 13.7539 19.8984 14.4911 19.5637 15.1485C19.2289 15.8059 18.7189 16.3579 18.0899 16.7435C17.461 17.129 16.7377 17.3332 16 17.3333V18.6667M16 28C14.4241 28 12.8637 27.6896 11.4078 27.0866C9.95189 26.4835 8.62902 25.5996 7.51472 24.4853C6.40042 23.371 5.5165 22.0481 4.91345 20.5922C4.31039 19.1363 4 17.5759 4 16C4 14.4241 4.31039 12.8637 4.91345 11.4078C5.5165 9.95189 6.40042 8.62902 7.51472 7.51472C8.62902 6.40042 9.95189 5.5165 11.4078 4.91345C12.8637 4.31039 14.4241 4 16 4C19.1826 4 22.2348 5.26428 24.4853 7.51472C26.7357 9.76516 28 12.8174 28 16C28 19.1826 26.7357 22.2348 24.4853 24.4853C22.2348 26.7357 19.1826 28 16 28ZM16.0667 22.6667V22.8H15.9333V22.6667H16.0667Z" stroke-linecap="round" stroke-linejoin="round"/>
</svg>
