<svg width="32" height="32" viewBox="0 0 32 32" stroke="currentColor" fill="none" xmlns="http://www.w3.org/2000/svg">
<path d="M4 8.0026V22.4026C4 23.8959 4 24.6426 4.29067 25.2133C4.54633 25.715 4.95426 26.1229 5.456 26.3786C6.02533 26.6693 6.772 26.6693 8.26267 26.6693H23.7373C25.228 26.6693 25.9733 26.6693 26.5427 26.3786C27.0453 26.1226 27.4533 25.7146 27.7093 25.2133C28 24.6426 28 23.8959 28 22.4026V12.2693C28 10.7759 28 10.0293 27.7093 9.4586C27.4537 8.95686 27.0457 8.54893 26.544 8.29327C25.9733 8.0026 25.2267 8.0026 23.7333 8.0026H16M4 8.0026H16M4 8.0026C4 7.29536 4.28095 6.61708 4.78105 6.11699C5.28115 5.61689 5.95942 5.33594 6.66667 5.33594H11.5667C12.2187 5.33594 12.5453 5.33594 12.852 5.40927C13.124 5.47594 13.384 5.5826 13.6227 5.72927C13.892 5.8946 14.1227 6.12527 14.5827 6.5866L16 8.0026" stroke-width="2" stroke-linecap="round" stroke-linejoin="round"/>
</svg>
