<svg width="32" height="32" viewBox="0 0 32 32" stroke="currentColor" fill="none" xmlns="http://www.w3.org/2000/svg">
<path d="M5.33398 15.2677V22.3983C5.33398 23.8917 5.33398 24.6383 5.62465 25.2103C5.88065 25.7117 6.28732 26.1197 6.78998 26.3743C7.35932 26.665 8.10598 26.665 9.59665 26.665H22.4047C23.8953 26.665 24.6407 26.665 25.21 26.3743C25.712 26.1193 26.1204 25.7118 26.3767 25.2103C26.6673 24.6397 26.6673 23.8943 26.6673 22.4037V15.2677C26.6673 14.5557 26.6673 14.1997 26.5807 13.8677C26.5039 13.5742 26.3777 13.296 26.2073 13.045C26.014 12.761 25.7473 12.525 25.21 12.057L18.81 6.457C17.8153 5.58633 17.3167 5.15033 16.7567 4.985C16.2633 4.83833 15.738 4.83833 15.2433 4.985C14.6833 5.15033 14.1873 5.585 13.1927 6.45433L6.79132 12.057C6.25532 12.5263 5.98732 12.761 5.79532 13.0437C5.62438 13.295 5.49767 13.5737 5.42065 13.8677C5.33398 14.1983 5.33398 14.5557 5.33398 15.2677Z" stroke-linecap="round" stroke-linejoin="round"/>
</svg>
