<svg width="32" height="32" viewBox="0 0 32 32" stroke="currentColor" fill="none" xmlns="http://www.w3.org/2000/svg">
<path d="M18.1331 28.0991L25.4131 23.8964C26.1918 23.4471 26.5798 23.2231 26.8625 22.9098C27.1126 22.6322 27.3015 22.3051 27.4171 21.9498C27.5465 21.5484 27.5465 21.1004 27.5465 20.2071V11.7884C27.5465 10.8951 27.5465 10.4471 27.4158 10.0458C27.3002 9.69046 27.1112 9.36339 26.8611 9.08578C26.5811 8.77378 26.1945 8.54978 25.4225 8.10445L18.1331 3.89645C17.3558 3.44711 16.9678 3.22311 16.5545 3.13645C16.1888 3.05868 15.8108 3.05868 15.4451 3.13645C15.0318 3.22311 14.6438 3.44711 13.8665 3.89645L6.58379 8.10045C5.80779 8.54845 5.41979 8.77245 5.13846 9.08578C4.88835 9.36339 4.69938 9.69046 4.58379 10.0458C4.45313 10.4484 4.45312 10.8964 4.45312 11.7938V20.2004C4.45312 21.0978 4.45313 21.5471 4.58379 21.9484C4.69938 22.3038 4.88835 22.6308 5.13846 22.9084C5.41979 23.2231 5.80913 23.4471 6.58513 23.8951L13.8651 28.0991C14.6438 28.5485 15.0318 28.7724 15.4451 28.8591C15.8105 28.9378 16.1891 28.9378 16.5545 28.8591C16.9678 28.7724 17.3558 28.5485 18.1331 28.0991Z" stroke-linecap="round" stroke-linejoin="round"/>
<path d="M11.9998 15.9978C11.9998 17.0586 12.4212 18.0761 13.1714 18.8262C13.9215 19.5764 14.9389 19.9978 15.9998 19.9978C17.0607 19.9978 18.0781 19.5764 18.8282 18.8262C19.5784 18.0761 19.9998 17.0586 19.9998 15.9978C19.9998 14.9369 19.5784 13.9195 18.8282 13.1694C18.0781 12.4192 17.0607 11.9978 15.9998 11.9978C14.9389 11.9978 13.9215 12.4192 13.1714 13.1694C12.4212 13.9195 11.9998 14.9369 11.9998 15.9978Z" stroke-width="2" stroke-linecap="round" stroke-linejoin="round"/>
</svg>
