<svg width="32" height="32" viewBox="0 0 32 32" stroke="currentColor" fill="none" xmlns="http://www.w3.org/2000/svg">
<path d="M10.6671 10.6693H9.03642C7.30308 10.6693 6.43775 10.6693 5.82308 11.0226C5.28175 11.3333 4.86575 11.8226 4.64842 12.4079C4.40175 13.0733 4.54308 13.9279 4.82842 15.6346V15.6373L6.07242 23.1039C6.28442 24.3706 6.38975 25.0039 6.70575 25.4799C6.98575 25.8986 7.37642 26.2293 7.83508 26.4359C8.35508 26.6693 8.99775 26.6693 10.2818 26.6693H21.7191C23.0031 26.6693 23.6444 26.6693 24.1658 26.4359C24.6244 26.2293 25.0164 25.8986 25.2951 25.4799C25.6111 25.0039 25.7164 24.3706 25.9271 23.1039L27.1724 15.6373V15.6319C27.4577 13.9253 27.5991 13.0719 27.3524 12.4079C27.1354 11.8231 26.7202 11.3329 26.1791 11.0226C25.5644 10.6693 24.6977 10.6693 22.9644 10.6693H21.3337M10.6671 10.6693H21.3337M10.6671 10.6693C10.6671 9.25478 11.229 7.89823 12.2292 6.89803C13.2294 5.89784 14.5859 5.33594 16.0004 5.33594C17.4149 5.33594 18.7715 5.89784 19.7717 6.89803C20.7718 7.89823 21.3337 9.25478 21.3337 10.6693" stroke-linecap="round" stroke-linejoin="round"/>
</svg>
