<svg width="32" height="32" viewBox="0 0 32 32" stroke="currentColor" fill="none" xmlns="http://www.w3.org/2000/svg">
<path d="M23.2096 23.2096C24.2001 22.2191 24.9858 21.0432 25.5219 19.749C26.058 18.4548 26.3339 17.0677 26.3339 15.6669C26.3339 14.2661 26.058 12.8791 25.5219 11.5849C24.9858 10.2907 24.2001 9.11479 23.2096 8.12427C22.2191 7.13376 21.0432 6.34804 19.749 5.81197C18.4548 5.27591 17.0677 5 15.6669 5C14.2661 5 12.8791 5.27591 11.5849 5.81197C10.2907 6.34804 9.11479 7.13376 8.12427 8.12427C6.12384 10.1247 5 12.8379 5 15.6669C5 18.496 6.12384 21.2092 8.12427 23.2096C10.1247 25.21 12.8379 26.3339 15.6669 26.3339C18.496 26.3339 21.2092 25.21 23.2096 23.2096ZM23.2096 23.2096L27 27" stroke-linecap="round" stroke-linejoin="round"/>
</svg>
