<svg width="32" height="32" viewBox="0 0 32 32" fill="currentColor" xmlns="http://www.w3.org/2000/svg">
<path fill-rule="evenodd" clip-rule="evenodd" d="M17.9607 7.29245C18.1482 7.10519 18.4023 7 18.6673 7C18.9323 7 19.1865 7.10519 19.374 7.29245L27.374 15.2925C27.5613 15.48 27.6664 15.7341 27.6664 15.9991C27.6664 16.2641 27.5613 16.5183 27.374 16.7058L19.374 24.7058C19.2824 24.804 19.172 24.8828 19.0494 24.9375C18.9267 24.9922 18.7943 25.0215 18.66 25.0239C18.5257 25.0263 18.3924 25.0016 18.2679 24.9513C18.1433 24.901 18.0302 24.8261 17.9353 24.7312C17.8403 24.6362 17.7654 24.5231 17.7152 24.3986C17.6649 24.2741 17.6402 24.1407 17.6425 24.0064C17.6449 23.8722 17.6743 23.7397 17.7289 23.6171C17.7836 23.4944 17.8624 23.384 17.9607 23.2925L24.254 16.9991H5.33398C5.06877 16.9991 4.81441 16.8938 4.62688 16.7062C4.43934 16.5187 4.33398 16.2643 4.33398 15.9991C4.33398 15.7339 4.43934 15.4796 4.62688 15.292C4.81441 15.1045 5.06877 14.9991 5.33398 14.9991H24.254L17.9607 8.70579C17.7734 8.51829 17.6682 8.26412 17.6682 7.99912C17.6682 7.73412 17.7734 7.47995 17.9607 7.29245Z" />
</svg>
