<svg width="32" height="32" viewBox="0 0 32 32" fill="none" xmlns="http://www.w3.org/2000/svg">
<path d="M31 16C31 24.2843 24.2843 31 16 31C7.71573 31 1 24.2843 1 16C1 7.71573 7.71573 1 16 1C24.2843 1 31 7.71573 31 16Z" fill="white"/>
<path d="M29 16C29 23.1797 23.1797 29 16 29C8.8203 29 3 23.1797 3 16C3 8.8203 8.8203 3 16 3C23.1797 3 29 8.8203 29 16Z" fill="#1E2125"/>
<path d="M6.85938 16C13.2253 16 16 13.3218 16 6.85938C16 13.3218 18.7554 16 25.1406 16C18.7554 16 16 18.7554 16 25.1406C16 18.7554 13.2253 16 6.85938 16Z" fill="#FFC123"/>
</svg>
